<svg width="286" height="121" viewBox="0 0 286 121" fill="none" xmlns="http://www.w3.org/2000/svg">
<path d="M119.025 57V25.5H130.815C133.335 25.5 135.42 25.935 137.07 26.805C138.75 27.675 139.995 28.845 140.805 30.315C141.615 31.755 142.02 33.36 142.02 35.13C142.02 36.81 141.615 38.385 140.805 39.855C140.025 41.295 138.795 42.465 137.115 43.365C135.465 44.235 133.335 44.67 130.725 44.67H125.1V57H119.025ZM135.36 57L128.88 43.14H135.45L142.29 57H135.36ZM125.1 40.26H130.41C132.27 40.26 133.635 39.81 134.505 38.91C135.375 38.01 135.81 36.825 135.81 35.355C135.81 33.885 135.375 32.73 134.505 31.89C133.635 31.02 132.27 30.585 130.41 30.585H125.1V40.26ZM151.882 57.54C150.052 57.54 148.492 57.15 147.202 56.37C145.912 55.59 144.922 54.435 144.232 52.905C143.542 51.345 143.197 49.44 143.197 47.19V34.68H149.227V46.65C149.227 48.51 149.602 49.935 150.352 50.925C151.132 51.915 152.332 52.41 153.952 52.41C155.002 52.41 155.917 52.17 156.697 51.69C157.507 51.18 158.137 50.46 158.587 49.53C159.037 48.6 159.262 47.49 159.262 46.2V34.68H165.337V57H160.162L159.622 53.445H159.442C158.752 54.705 157.777 55.71 156.517 56.46C155.287 57.18 153.742 57.54 151.882 57.54ZM167.604 57V34.68H172.914L173.409 38.415H173.589C174.279 37.005 175.239 35.94 176.469 35.22C177.699 34.5 179.124 34.14 180.744 34.14C181.854 34.14 182.874 34.29 183.804 34.59C184.764 34.89 185.604 35.37 186.324 36.03C187.044 36.66 187.644 37.5 188.124 38.55H188.304C189.144 37.17 190.179 36.09 191.409 35.31C192.669 34.53 194.259 34.14 196.179 34.14C197.889 34.14 199.374 34.545 200.634 35.355C201.894 36.135 202.854 37.29 203.514 38.82C204.204 40.35 204.549 42.24 204.549 44.49V57H198.519V45.03C198.519 43.17 198.159 41.745 197.439 40.755C196.719 39.765 195.594 39.27 194.064 39.27C193.044 39.27 192.174 39.495 191.454 39.945C190.734 40.365 190.164 41.01 189.744 41.88C189.324 42.72 189.114 43.77 189.114 45.03V57H183.084V45.03C183.084 43.17 182.724 41.745 182.004 40.755C181.284 39.765 180.144 39.27 178.584 39.27C177.684 39.27 176.859 39.525 176.109 40.035C175.359 40.515 174.759 41.22 174.309 42.15C173.889 43.05 173.679 44.16 173.679 45.48V57H167.604ZM206.821 66V34.68H211.906L212.266 38.595H212.446C213.016 37.665 213.691 36.87 214.471 36.21C215.281 35.55 216.196 35.04 217.216 34.68C218.266 34.32 219.406 34.14 220.636 34.14C222.766 34.14 224.611 34.65 226.171 35.67C227.731 36.66 228.946 38.04 229.816 39.81C230.686 41.58 231.121 43.59 231.121 45.84C231.121 48.09 230.686 50.1 229.816 51.87C228.946 53.64 227.716 55.035 226.126 56.055C224.536 57.045 222.646 57.54 220.456 57.54C218.716 57.54 217.201 57.21 215.911 56.55C214.651 55.86 213.646 55.05 212.896 54.12V66H206.821ZM218.881 52.59C220.111 52.59 221.176 52.305 222.076 51.735C223.006 51.165 223.711 50.385 224.191 49.395C224.701 48.375 224.956 47.205 224.956 45.885C224.956 44.535 224.701 43.365 224.191 42.375C223.711 41.355 223.006 40.56 222.076 39.99C221.176 39.42 220.111 39.135 218.881 39.135C217.681 39.135 216.616 39.42 215.686 39.99C214.756 40.56 214.036 41.355 213.526 42.375C213.016 43.365 212.761 44.535 212.761 45.885C212.761 47.205 213.016 48.375 213.526 49.395C214.036 50.385 214.756 51.165 215.686 51.735C216.616 52.305 217.681 52.59 218.881 52.59ZM243.512 57.54C241.352 57.54 239.402 57.045 237.662 56.055C235.922 55.065 234.542 53.685 233.522 51.915C232.532 50.145 232.037 48.12 232.037 45.84C232.037 43.53 232.547 41.505 233.567 39.765C234.587 37.995 235.967 36.615 237.707 35.625C239.447 34.635 241.382 34.14 243.512 34.14C245.672 34.14 247.622 34.635 249.362 35.625C251.102 36.615 252.467 37.995 253.457 39.765C254.477 41.505 254.987 43.53 254.987 45.84C254.987 48.15 254.477 50.19 253.457 51.96C252.437 53.7 251.057 55.065 249.317 56.055C247.607 57.045 245.672 57.54 243.512 57.54ZM243.467 52.41C244.457 52.41 245.342 52.17 246.122 51.69C246.932 51.21 247.577 50.49 248.057 49.53C248.537 48.54 248.777 47.31 248.777 45.84C248.777 44.37 248.537 43.155 248.057 42.195C247.577 41.205 246.932 40.47 246.122 39.99C245.342 39.51 244.487 39.27 243.557 39.27C242.597 39.27 241.712 39.51 240.902 39.99C240.092 40.47 239.447 41.205 238.967 42.195C238.487 43.155 238.247 44.37 238.247 45.84C238.247 47.31 238.487 48.54 238.967 49.53C239.447 50.49 240.077 51.21 240.857 51.69C241.667 52.17 242.537 52.41 243.467 52.41ZM256.542 57V34.68H261.717L262.257 38.325H262.437C263.157 37.005 264.132 35.985 265.362 35.265C266.592 34.515 268.137 34.14 269.997 34.14C271.857 34.14 273.432 34.545 274.722 35.355C276.012 36.135 276.987 37.29 277.647 38.82C278.337 40.35 278.682 42.24 278.682 44.49V57H272.607V45.03C272.607 43.17 272.232 41.745 271.482 40.755C270.732 39.765 269.547 39.27 267.927 39.27C266.907 39.27 265.992 39.525 265.182 40.035C264.372 40.515 263.742 41.22 263.292 42.15C262.842 43.05 262.617 44.16 262.617 45.48V57H256.542Z" fill="#292930"/>
<g filter="url(#filter0_d_0_302)">
<rect x="26" y="7" width="72" height="69" rx="10" fill="white"/>
</g>
<ellipse cx="62.9693" cy="37.5" rx="7.13443" ry="5.5" fill="white"/>
<path d="M42 23H62C64.7614 23 67 25.2386 67 28V43C67 45.7614 64.7614 48 62 48H47C44.2386 48 42 45.7614 42 43V23Z" fill="#5956E9"/>
<path opacity="0.85" d="M55 34H75C77.7614 34 80 36.2386 80 39V54C80 56.7614 77.7614 59 75 59H60C57.2386 59 55 56.7614 55 54V34Z" fill="#FFDC60"/>
<mask id="mask0_0_302" style="mask-type:alpha" maskUnits="userSpaceOnUse" x="42" y="23" width="25" height="25">
<path d="M42 23H62C64.7614 23 67 25.2386 67 28V43C67 45.7614 64.7614 48 62 48H47C44.2386 48 42 45.7614 42 43V23Z" fill="#FFDC60"/>
</mask>
<g mask="url(#mask0_0_302)">
<path opacity="0.85" d="M55 34H75C77.7614 34 80 36.2386 80 39V54C80 56.7614 77.7614 59 75 59H60C57.2386 59 55 56.7614 55 54V34Z" fill="#82CEFD"/>
</g>
<defs>
<filter id="filter0_d_0_302" x="0" y="0" width="124" height="121" filterUnits="userSpaceOnUse" color-interpolation-filters="sRGB">
<feFlood flood-opacity="0" result="BackgroundImageFix"/>
<feColorMatrix in="SourceAlpha" type="matrix" values="0 0 0 0 0 0 0 0 0 0 0 0 0 0 0 0 0 0 127 0" result="hardAlpha"/>
<feOffset dy="19"/>
<feGaussianBlur stdDeviation="13"/>
<feComposite in2="hardAlpha" operator="out"/>
<feColorMatrix type="matrix" values="0 0 0 0 0.391181 0 0 0 0 0.482317 0 0 0 0 0.716667 0 0 0 0.07 0"/>
<feBlend mode="normal" in2="BackgroundImageFix" result="effect1_dropShadow_0_302"/>
<feBlend mode="normal" in="SourceGraphic" in2="effect1_dropShadow_0_302" result="shape"/>
</filter>
</defs>
</svg>
